<?xml version="1.0" encoding="utf-8"?>
<!-- Generator: Adobe Illustrator 19.0.0, SVG Export Plug-In . SVG Version: 6.00 Build 0)  -->
<svg version="1.1" id="layer" xmlns="http://www.w3.org/2000/svg" xmlns:xlink="http://www.w3.org/1999/xlink" x="0px" y="0px"
	 viewBox="-153 -46 652 652" style="enable-background:new -153 -46 652 652;" xml:space="preserve">
<style type="text/css">
	.st0{fill:#111E6C;}
</style>
<path class="st0" d="M-11.2,233c-4.5,0-17.3,0.4-27.6,10.7c-9.4,9-20.1,19.2-24,22.8h95.8L49.8,233H-11.2z M-79,282l-47.5,45.2
	l111.1,0c1,0,18.1,0.6,24.2-11.7c5.8-11.7,14.3-28.8,16.6-33.5L-79,282C-79,282-79,282-79,282z M9.2,321.8L9,322.5h1.6l-0.9,4h1.1
	l0.8-4h1.6l0.2-0.7H9.2z M15.7,321.8l0.3,1.9c0.1,0.5,0.1,1.1,0.2,1.6h0c0.3-0.5,0.6-1.1,0.9-1.6l1.2-1.9h1.4l-0.7,4.7h-1l0.3-1.9
	c0.1-0.6,0.2-1.3,0.4-2h0c-0.3,0.6-0.7,1.2-1.1,1.8l-1.3,2h-0.8l-0.3-2c-0.1-0.6-0.1-1.2-0.2-1.8l-0.2,0.6c-0.1,0.4-0.2,0.9-0.4,1.3
	l-0.5,1.9h-1l1.4-4.7C14.4,321.8,15.7,321.8,15.7,321.8z M301.1,261.2L301.1,261.2l2,0c18.8,0.1,22.6,1.6,26.8,6.2
	c3.2,3.5,3.7,7,2.5,12.3c0,0-3.2,13.6-3.8,15.8c-1,3.7-2.8,8.4-7.6,11.5c-5.7,3.6-14.8,3.4-24.2,3.3l-11.4,0
	c-18.9,0-23.9-7.7-22.2-14.8c1.5-6.4,3.4-14,3.8-15.5l0.1-0.3c1.3-5.3,1.8-10,8-14.5C280.6,261.2,289.8,261.2,301.1,261.2
	L301.1,261.2z M207.7,250.3L207.7,250.3l14.5,0c0.4,0,0.9,0.2,1.1,0.5c0.4,0.5,0.6,1.3,0.4,2.2l-2,8.3h16.1c1.5,0,7.5,0.1,9.3,0.2
	c2.1,0.1,4.2,0.3,6.2,1c9.8,3,12.8,9.4,10,20.2c0,0-2.3,10.4-3,12.9c-3.7,13.3-17,14.6-29.4,14.6c-8.6,0-34.9,0-39,0h-0.5l13.7-57.3
	C205.4,251.4,206.4,250.3,207.7,250.3z M367.7,261.5L367.7,261.5l30.4,0c0.3,0,7.6,0.1,9.6,0.2c2.1,0.1,4.2,0.5,6.2,1
	c9.6,2.8,13,9.6,10,20.2l-6.4,27.3l-40.6,0c-0.4,0-9.9-0.1-12.5-0.4c-2.6-0.3-4.9-0.9-6.7-2c-4.9-2.6-6.8-6.6-5.5-12.1
	c0.8-3.3,2.6-6.3,5.4-8.9c2.8-2.6,6.1-4.3,9.8-5.2c3.3-0.8,8.7-1.3,15.9-1.3h20.4c1.2,0,1.8-0.3,2.2-1.7c1.1-3.6-0.5-6.3-7.1-6.3
	h-34.1c-0.4,0-1-0.2-1.3-0.5c-0.4-0.5-0.6-1.1-0.4-2.2l1.3-5.6C364.9,262.6,365.9,261.5,367.7,261.5L367.7,261.5z M65.7,249.9
	L65.7,249.9l36.1,0c3.8,0,10.3,0.2,15.5,1.8c4.5,1.4,7.2,3.9,8.7,7.1c1,2,1.2,4.4,0.5,7.2c-0.9,3.5-2.9,6.6-6,9.1
	c-3.2,2.7-5.5,4.1-5.5,4.1c-0.6,0.4-1,0.8-1,1.1c0,0.2,0.1,0.3,0.3,0.4c0.8,0.4,9.5,5.3,9.5,12.4c1-2.3,2.5-4.4,4.5-6.3
	c2.8-2.6,6.1-4.3,9.8-5.2c3.3-0.8,8.7-1.3,15.9-1.3h19.9c1.2,0,1.8-0.3,2.2-1.7c1.1-3.6-0.5-6.3-7.1-6.3h-33.6c-0.5,0-1-0.2-1.3-0.5
	c-0.4-0.5-0.6-1.1-0.4-2.2l1.3-5.6c0.3-1.4,1.4-2.6,3.2-2.6H169c0.9,0,7.6,0.1,9.5,0.2c2.1,0.1,4.2,0.5,6.2,1
	c9.6,2.8,13.1,9,10.3,20.2l-6.6,27.3l-37.1,0h-3.6c-0.4,0-9.9-0.1-12.5-0.4c-2.6-0.3-4.9-0.9-6.6-2c-4.5-2.4-6.4-6-5.7-10.9l0,0.1
	c-1.2,2.8-3,5.2-5.8,7.2c-3.1,2.3-5.6,3.5-11.2,4.8c-4.3,1-14.5,1-15,1c-1.1,0-2.7,0.1-3.7,0.1l-37.8,0L63,252.3
	C63.4,251,64.6,249.9,65.7,249.9L65.7,249.9z M454.9,305.1l-0.2,0.8H453l-0.9,4.3h-1.1l0.9-4.3h-1.8l0.2-0.8H454.9L454.9,305.1z
	 M457.3,305.1l0.4,2c0.1,0.6,0.1,1.2,0.2,1.8h0c0.3-0.5,0.6-1.2,1-1.8l1.3-2h1.5l-0.7,5h-1.1l0.3-2c0.1-0.7,0.2-1.4,0.4-2.1h0
	c-0.3,0.6-0.7,1.3-1.1,1.9l-1.4,2.2h-0.9l-0.4-2.2c-0.1-0.6-0.2-1.3-0.2-2l-0.2,0.7c-0.1,0.5-0.3,1-0.4,1.5l-0.6,2h-1l1.5-5
	L457.3,305.1L457.3,305.1z M359,250.2c0.5,0,0.9,0.2,1.2,0.5c0.4,0.5,0.6,1.3,0.3,2.2l-13.7,57.2h-18.9l13.7-57.3
	c0.3-1.4,1.5-2.6,2.6-2.6H359z M471.9,250.2c0.4,0,1,0.2,1.2,0.5c0.4,0.5,0.5,1.3,0.3,2.2l-1.6,6.9c-0.3,1.4-1.5,2.6-2.6,2.6h-16.1
	c-0.8,0-1.6,0.8-1.9,2.2l-10.9,45.6h-19.9l10.9-45.7c0.2-0.7,0.2-1.3-0.1-1.7c-0.2-0.2-0.6-0.4-0.8-0.4h-6.8c-0.4,0-0.9-0.2-1.1-0.5
	c-0.4-0.5-0.5-1.3-0.3-2.2l1.7-7.4c0.3-1.4,1.4-2.1,2.6-2.1H471.9z M172.4,291.3h-20.9c-3.9,0-5.3,0.3-6.7,1
	c-1.3,0.8-2.1,1.9-2.4,3.2c-0.3,1.5,0.2,2.7,1.4,3.2c1.3,0.6,2.9,0.7,6.4,0.7h20.1c0.8,0,1.8-1,2.1-2.2l0.9-3.9
	c0.1-0.7,0.1-1.4-0.3-1.7C172.9,291.4,172.7,291.3,172.4,291.3L172.4,291.3z M401.6,291.3h-20.9c-3.9,0-5.3,0.3-6.7,1
	c-1.3,0.8-2.1,1.9-2.4,3.2c-0.3,1.5,0.2,2.7,1.4,3.2c1.3,0.6,2.9,0.7,6.4,0.7h20.1c0.8,0,1.8-1,2-2.2l0.9-3.9
	c0.2-0.7,0.1-1.4-0.3-1.7C402.1,291.4,401.9,291.3,401.6,291.3L401.6,291.3z M89.8,285.7H79.5c-1.1,0-1.9,0.8-2.2,1.9l-2.3,9.8
	c-0.1,0.6-0.1,1.1,0.3,1.5c0.2,0.3,0.5,0.4,0.8,0.4c0,0,9.5,0,10.5,0c0,0,3.2,0,4.6-0.1c1.4-0.2,2.8-0.5,4.1-1.1
	c3.3-1.4,5.1-3.4,5.7-5.9c0.6-2.3-0.3-4.1-2.8-5.2c-2.8-1.3-6.8-1.2-9.1-1.2H89.8z M231.7,274.5h-13.2v0l-5.2,22.3h15.4
	c5.5,0,11.3-0.6,13-6.7c0.3-1.1,1.3-5.8,1.3-5.9c1.3-4.8-0.2-7.9-4.4-9.2c-0.9-0.2-1.8-0.4-2.7-0.4
	C235,274.5,231.8,274.5,231.7,274.5L231.7,274.5z M295.1,274.4c-3.8,0-6.8,0.3-8.9,1.8c-3.3,2.3-3.3,3.8-4.8,9.4
	c-1.4,5.1-1.5,6.6,0.9,8.7c2.5,2.2,6.8,2.2,12.8,2.2l2.6,0c4.9,0.1,8.9,0.1,11.8-1.7c3.4-2.1,3.9-4.5,4.6-7.7l0.3-1.2l0.2-0.8
	c0.8-3.2,1.3-5.5-0.6-7.6c-2.3-2.5-4-3.1-14.3-3.1L295.1,274.4L295.1,274.4z M97.1,261.1H85.3c-0.9,0-1.8,0.8-2.1,1.9l-2.3,9.8
	c-0.1,0.6-0.1,1.1,0.3,1.5c0.2,0.2,0.5,0.4,0.8,0.4h10.9c0.7,0,3.2,0,4.4-0.2c1.4-0.2,2.7-0.6,4.1-1.1c3.3-1.4,4.9-3.5,5.6-5.9
	C108.5,261.9,102.4,261.1,97.1,261.1z"/>
</svg>
