<?xml version="1.0" standalone="no"?>
<!DOCTYPE svg PUBLIC "-//W3C//DTD SVG 20010904//EN"
 "http://www.w3.org/TR/2001/REC-SVG-20010904/DTD/svg10.dtd">
<svg version="1.0" xmlns="http://www.w3.org/2000/svg"
 width="2000.000000pt" height="2000.000000pt" viewBox="0 0 2000.000000 2000.000000"
 preserveAspectRatio="xMidYMid meet">

<g transform="translate(0.000000,2000.000000) scale(0.100000,-0.100000)"
fill="#000000" stroke="none">
<path d="M5825 15464 c61 -58 495 -455 1485 -1359 920 -840 973 -889 1055
-965 45 -41 134 -122 198 -180 l117 -105 -123 -8 c-549 -35 -990 -161 -1407
-400 -708 -406 -1225 -1072 -1440 -1857 -71 -259 -104 -508 -104 -775 1 -757
327 -1506 895 -2060 151 -147 255 -231 419 -340 479 -318 981 -478 1610 -516
102 -6 186 -11 186 -12 1 -1 -140 -132 -314 -292 -173 -159 -464 -427 -647
-595 -436 -402 -1088 -1001 -1499 -1378 -434 -398 -414 -377 -271 -294 152 88
798 463 1105 642 129 75 336 195 460 267 124 72 572 332 995 578 424 247 813
473 865 503 52 30 316 183 585 340 470 273 601 349 945 549 175 102 712 414
1080 628 299 174 1037 603 1330 773 118 69 256 148 305 177 50 29 351 204 670
390 319 185 698 405 842 488 144 84 262 154 263 157 0 3 -28 21 -63 41 -34 19
-240 140 -457 269 -217 128 -827 487 -1355 798 -528 311 -1277 752 -1665 980
-1012 596 -2406 1417 -3125 1840 -341 200 -656 386 -700 412 -96 57 -449 265
-560 330 -44 26 -206 121 -360 212 -154 90 -307 180 -340 200 -33 19 -265 155
-515 302 -250 148 -466 275 -480 283 -16 9 -10 0 15 -23z m3599 -2869 c603
-71 1153 -328 1590 -745 441 -422 729 -979 822 -1592 9 -60 18 -203 21 -343 4
-206 2 -263 -16 -400 -82 -630 -349 -1169 -800 -1615 -423 -418 -933 -672
-1541 -767 -145 -22 -583 -25 -730 -5 -850 120 -1563 588 -2004 1315 -259 428
-389 900 -389 1417 0 362 52 647 180 990 231 619 728 1167 1331 1469 319 160
638 250 1002 285 105 9 419 4 534 -9z"/>
<path d="M7808 10953 c-23 -49 -90 -191 -149 -318 l-107 -230 194 -3 c107 -1
194 -6 194 -10 0 -5 -79 -183 -176 -398 -96 -214 -198 -440 -226 -501 l-50
-113 -190 -2 -191 -3 -143 -315 c-79 -173 -143 -321 -144 -328 0 -11 268 -13
1523 -9 1340 4 1538 6 1652 21 506 64 832 201 1085 455 192 192 325 452 391
761 33 151 33 398 0 520 -37 142 -93 243 -186 336 -130 131 -278 194 -500 214
-65 6 -683 10 -1523 10 l-1413 0 -41 -87z m2175 -587 c152 -74 199 -274 119
-500 -45 -126 -84 -188 -182 -286 -95 -96 -178 -145 -300 -180 -72 -20 -94
-21 -515 -20 -241 0 -440 2 -441 3 -1 2 196 443 418 935 l38 83 402 -3 403 -3
58 -29z"/>
</g>
</svg>
