<?xml version="1.0" encoding="UTF-8"?>
<svg xmlns="http://www.w3.org/2000/svg" xmlns:xlink="http://www.w3.org/1999/xlink" width="187.09pt" height="67.36pt" viewBox="0 0 187.09 67.36" version="1.1">
<defs>
<clipPath id="clip1">
  <path d="M 179 16 L 187.089844 16 L 187.089844 25 L 179 25 Z M 179 16 "/>
</clipPath>
<clipPath id="clip2">
  <path d="M 0 14 L 40 14 L 40 67.359375 L 0 67.359375 Z M 0 14 "/>
</clipPath>
</defs>
<g id="surface1">
<path style=" stroke:none;fill-rule:evenodd;fill:rgb(31.399536%,72.198486%,28.199768%);fill-opacity:1;" d="M 64.417969 25.050781 L 66.917969 14.726563 C 62.421875 14.226563 57.84375 16.640625 57.34375 17.140625 C 56.84375 17.640625 56.261719 17.808594 56.179688 16.890625 L 56.011719 15.226563 L 45.691406 15.226563 L 35.453125 57.347656 L 47.273438 57.347656 L 53.347656 32.375 C 55.347656 24.214844 59.839844 24.882813 64.417969 25.050781 "/>
<path style=" stroke:none;fill-rule:evenodd;fill:rgb(31.399536%,72.198486%,28.199768%);fill-opacity:1;" d="M 68.757813 15.226563 L 58.519531 57.347656 L 70.339844 57.347656 L 80.578125 15.226563 L 68.757813 15.226563 "/>
<path style=" stroke:none;fill-rule:evenodd;fill:rgb(31.399536%,72.198486%,28.199768%);fill-opacity:1;" d="M 105.585938 14.8125 C 100.675781 14.644531 98.011719 16.058594 97.011719 16.808594 C 96.011719 17.558594 96.097656 16.476563 96.097656 15.226563 L 85.191406 15.226563 L 74.953125 57.347656 L 86.738281 57.347656 L 94.648438 24.882813 C 95.179688 23.136719 96.3125 22.351563 97.707031 22.351563 C 99.105469 22.351563 99.957031 23.484375 99.710938 24.882813 L 91.800781 57.347656 L 103.589844 57.347656 L 111.496094 24.882813 C 112.328125 21.136719 112.5 15.046875 105.585938 14.8125 "/>
<path style=" stroke:none;fill-rule:evenodd;fill:rgb(31.399536%,72.198486%,28.199768%);fill-opacity:1;" d="M 126.765625 47.945313 C 126.398438 49.359375 125.433594 50.476563 124.035156 50.476563 C 122.640625 50.476563 121.453125 49.34375 121.703125 47.945313 L 127.445313 24.886719 C 127.980469 23.136719 129.191406 22.355469 130.589844 22.355469 C 131.988281 22.355469 132.671875 23.488281 132.425781 24.886719 L 130.726563 31.460938 L 142.296875 31.460938 L 143.460938 26.882813 C 144.210938 23.386719 144.628906 14.898438 131.890625 14.898438 C 119.15625 14.898438 116.324219 22.054688 115.578125 25.386719 L 110.332031 46.695313 C 109.25 51.023438 110.164063 58.683594 121.902344 58.683594 C 133.640625 58.683594 137.136719 52.855469 137.96875 49.277344 L 140.050781 40.703125 L 128.5625 40.703125 L 126.765625 47.945313 "/>
<path style=" stroke:none;fill-rule:evenodd;fill:rgb(31.399536%,72.198486%,28.199768%);fill-opacity:1;" d="M 163.546875 24.886719 L 161.765625 31.460938 L 156.953125 31.460938 L 158.566406 24.886719 C 159.101563 23.136719 160.3125 22.355469 161.710938 22.355469 C 163.109375 22.355469 163.792969 23.488281 163.546875 24.886719 Z M 163.011719 14.898438 C 150.277344 14.898438 147.449219 22.054688 146.699219 25.386719 L 141.453125 46.695313 C 140.371094 51.023438 141.289063 58.683594 153.023438 58.683594 C 164.761719 58.683594 168.257813 52.855469 169.089844 49.277344 L 171.171875 40.703125 L 159.519531 40.703125 L 157.886719 47.945313 C 157.519531 49.359375 156.554688 50.476563 155.160156 50.476563 C 153.761719 50.476563 152.660156 49.34375 152.90625 47.945313 L 155.480469 37.457031 L 171.921875 37.457031 L 174.585938 26.882813 C 175.332031 23.386719 175.75 14.898438 163.011719 14.898438 "/>
<path style=" stroke:none;fill-rule:evenodd;fill:rgb(31.399536%,72.198486%,28.199768%);fill-opacity:1;" d="M 76.953125 13.179688 C 80.59375 13.179688 83.542969 10.230469 83.542969 6.589844 C 83.542969 2.949219 80.59375 -0.00390625 76.953125 -0.00390625 C 73.3125 -0.00390625 70.359375 2.949219 70.359375 6.589844 C 70.359375 10.230469 73.3125 13.179688 76.953125 13.179688 "/>
<g clip-path="url(#clip1)" clip-rule="nonzero">
<path style=" stroke:none;fill-rule:evenodd;fill:rgb(31.399536%,72.198486%,28.199768%);fill-opacity:1;" d="M 183.085938 23.90625 C 181.273438 23.90625 179.828125 22.527344 179.828125 20.746094 C 179.828125 19.023438 181.273438 17.632813 183.085938 17.632813 C 184.875 17.632813 186.324219 19.023438 186.324219 20.746094 C 186.324219 22.527344 184.875 23.90625 183.085938 23.90625 Z M 183.085938 16.867188 C 180.867188 16.867188 179.0625 18.613281 179.0625 20.746094 C 179.0625 22.925781 180.867188 24.671875 183.085938 24.671875 C 185.296875 24.671875 187.085938 22.925781 187.085938 20.746094 C 187.085938 18.613281 185.296875 16.867188 183.085938 16.867188 "/>
</g>
<path style=" stroke:none;fill-rule:evenodd;fill:rgb(31.399536%,72.198486%,28.199768%);fill-opacity:1;" d="M 182.988281 20.394531 L 182.257813 20.394531 L 182.257813 19.078125 L 183.417969 19.078125 C 183.984375 19.078125 184.480469 19.15625 184.480469 19.71875 C 184.480469 20.503906 183.617188 20.394531 182.988281 20.394531 Z M 185.144531 19.730469 C 185.144531 19.367188 184.976563 18.980469 184.644531 18.792969 C 184.304688 18.601563 183.929688 18.582031 183.550781 18.582031 L 181.597656 18.582031 L 181.597656 22.945313 L 182.257813 22.945313 L 182.257813 20.933594 L 183.042969 20.933594 L 184.324219 22.945313 L 185.089844 22.945313 L 183.730469 20.933594 C 184.523438 20.914063 185.144531 20.59375 185.144531 19.730469 "/>
<g clip-path="url(#clip2)" clip-rule="nonzero">
<path style=" stroke:none;fill-rule:evenodd;fill:rgb(31.399536%,72.198486%,28.199768%);fill-opacity:1;" d="M 27.421875 24.90625 L 22.257813 46.214844 C 21.976563 47.714844 20.679688 48.746094 19.28125 48.746094 C 17.882813 48.746094 16.703125 47.613281 16.949219 46.214844 L 22.191406 24.90625 C 22.726563 23.160156 23.9375 22.375 25.335938 22.375 C 26.734375 22.375 27.667969 23.507813 27.421875 24.90625 Z M 33.296875 14.417969 C 29.21875 13.917969 25.472656 15.75 23.972656 16.832031 L 23.472656 15.25 L 12.734375 15.25 L 0 67.359375 L 11.902344 67.359375 L 14.484375 56.621094 C 14.652344 55.871094 15.152344 55.707031 15.648438 56.121094 C 16.816406 57.039063 19.726563 58.035156 22.640625 58.035156 C 25.554688 58.035156 31.632813 56.039063 32.796875 50.960938 L 39.207031 24.90625 C 41.121094 16.582031 37.375 14.917969 33.296875 14.417969 "/>
</g>
</g>
</svg>
