<svg xmlns:xlink="http://www.w3.org/1999/xlink" xmlns="http://www.w3.org/2000/svg" width="199" height="35" viewBox="0 0 199 35" fill="none">
<g clip-path="url(#clip0)">
<path d="M117.765 10.7088H117.66C114.485 10.7088 113.269 11.4136 111.92 12.3896L112.158 11.251H108.084L104.777 27.9512L104.751 28.1139H109.089L110.941 18.8149C111.311 16.89 112.475 14.5585 115.834 14.5585H115.861C117.051 14.5585 117.898 14.8838 118.4 15.5074C118.982 16.2394 119.115 17.3509 118.797 18.9504L117.025 27.9783L116.998 28.141H121.363L123.373 17.9473C123.691 16.3478 123.797 14.0976 122.553 12.5523C121.575 11.3323 119.987 10.7359 117.765 10.7088Z" fill="black"/>
<path d="M140.647 27.9512L140.594 28.141H144.958L148.106 12.1456L148.133 11.983H143.794L140.647 27.9512Z" fill="black"/>
<path d="M149.244 6.39815H144.879L144.165 10.0581H148.53L149.244 6.39815Z" fill="black"/>
<path d="M161.412 10.7088C159.428 10.7088 157.417 11.3052 155.619 12.3896L156.809 6.37103H152.444L150.196 17.7576L148.186 27.9241L148.159 28.0868H152.339L152.603 26.8125C154.005 28.0054 155.83 28.629 157.894 28.629C163.052 28.629 168.051 24.6166 169.03 19.6553C169.48 17.3238 169.004 15.1278 167.654 13.4469C166.226 11.7119 164.004 10.7088 161.412 10.7088ZM164.956 19.6824C164.401 22.529 161.491 24.8335 158.449 24.8335C156.941 24.8335 155.592 24.237 154.772 23.2068C154.005 22.2579 153.741 21.0108 154.005 19.7095C154.561 16.8629 157.47 14.5585 160.512 14.5585C162.02 14.5585 163.369 15.1549 164.189 16.1851C164.93 17.134 165.194 18.3811 164.956 19.6824Z" fill="black"/>
<path d="M100.836 22.9357C99.9896 23.7761 98.5082 24.8064 96.2863 24.8064C94.8049 24.8064 93.5617 24.2641 92.7946 23.3153C92.0539 22.3935 91.7894 21.0922 92.0804 19.6824C92.3713 18.2456 93.1649 16.89 94.2759 15.9682C95.5191 14.9923 96.7624 14.5314 98.1908 14.5314C98.2437 14.5314 98.2966 14.5314 98.3495 14.5314H98.376C100.069 14.5314 101.392 15.2091 102.106 16.4291L102.185 16.5647L105.624 14.2603L105.545 14.1518C104.063 11.9559 101.709 10.7359 98.9579 10.7359C93.641 10.7359 88.7209 14.6669 87.7158 19.6824C87.2661 22.0139 87.7422 24.2099 89.0648 25.8637C90.4932 27.653 92.821 28.6561 95.572 28.6561C98.4553 28.6561 101.365 27.4903 103.561 25.457L103.666 25.3486L100.968 22.8544L100.836 22.9357Z" fill="black"/>
<path d="M180.563 14.5585C180.748 14.5585 180.907 14.5585 181.092 14.5856H181.224L181.991 10.7088H181.806C179.267 10.7901 178.103 11.3052 176.648 12.3896L176.886 11.251H172.812L169.506 27.9512L169.479 28.1139H173.818L175.669 18.8149C176.04 16.89 177.204 14.5585 180.563 14.5585Z" fill="black"/>
<path d="M124.299 27.9512L124.273 28.141H128.638L131.785 12.1456L131.812 11.983H127.447L124.299 27.9512Z" fill="black"/>
<path d="M132.923 6.39815H128.558L127.844 10.0581H132.182L132.923 6.39815Z" fill="black"/>
<path d="M78.7484 10.7359C72.5057 10.7359 68.2204 15.3176 67.374 19.6553V19.6824C66.9243 21.9868 67.4004 24.2641 68.723 25.9179C70.1514 27.7072 72.3999 28.629 75.2303 28.629C79.0923 28.629 81.711 26.921 83.2188 25.4841L83.3246 25.3757L80.6265 22.8544L80.5471 22.9357C79.3303 24.1286 77.6903 24.8064 76.0767 24.8064C73.5373 24.8064 71.7121 23.261 71.6592 21.0651H86.1286L86.155 20.9837C86.3137 20.55 86.4195 20.1162 86.4989 19.7095C86.975 17.3509 86.4724 15.0736 85.1763 13.4198C83.7743 11.6576 81.5523 10.7359 78.7484 10.7359ZM78.0077 14.5314C80.7852 14.5314 82.2665 15.6971 82.293 17.8931H72.3734C73.5109 15.8598 75.7328 14.5314 78.0077 14.5314Z" fill="black"/>
<path d="M75.8652 6.39851H53.9627L53.2485 10.0585H61.3165L57.7983 27.9516L57.7719 28.1413H62.11L65.6811 10.0585H73.8019L75.8652 6.39851Z" fill="black"/>
<path d="M142.71 11.983H139.377C139.747 10.2479 140.594 10.0581 142.472 10.0581H142.577L143.292 6.39815H143.133C139.747 6.39815 136.017 6.83192 135.039 11.7932L131.864 27.9512L131.838 28.1139H136.203L138.768 15.1278H140.937L142.71 11.983Z" fill="black"/>
<path d="M197.678 13.3927C196.276 11.6576 194.08 10.7359 191.276 10.7359C185.034 10.7359 180.748 15.3176 179.902 19.6553V19.6824C179.452 21.9868 179.928 24.2641 181.251 25.9179C182.679 27.7072 184.928 28.629 187.758 28.629C191.62 28.629 194.239 26.921 195.747 25.4841L195.853 25.3757L193.154 22.8544L193.075 22.9357C191.858 24.1286 190.218 24.8064 188.605 24.8064C186.065 24.8064 184.24 23.261 184.187 21.0651H198.656L198.683 20.9837C198.842 20.55 198.947 20.1162 199.027 19.7095C199.476 17.3238 199 15.0465 197.678 13.3927ZM190.536 14.5314C193.313 14.5314 194.794 15.6971 194.821 17.8931H184.901C186.039 15.8598 188.261 14.5314 190.536 14.5314Z" fill="black"/>
<path fill-rule="evenodd" clip-rule="evenodd" d="M37.8004 17.3238L41.4772 10.8172H26.0027L16.0566 28.4934L19.707 35L29.6795 17.3238H37.8004Z" fill="#E4032C"/>
<path fill-rule="evenodd" clip-rule="evenodd" d="M47.5611 0H0L3.67686 6.50658H16.2152L9.94603 17.6762L13.6229 24.1828L23.5689 6.50658H43.8842L47.5611 0Z" fill="#27326F"/>
</g>
<defs>
<clipPath id="clip0">
<rect width="199" height="35" fill="white"/>
</clipPath>
</defs>
</svg>