<?xml version="1.0" encoding="utf-8"?>
<!-- Generator: Adobe Illustrator 24.3.0, SVG Export Plug-In . SVG Version: 6.00 Build 0)  -->
<svg version="1.0" id="katman_1" xmlns="http://www.w3.org/2000/svg" xmlns:xlink="http://www.w3.org/1999/xlink" x="0px" y="0px"
	 viewBox="0 0 841.89 595.28" style="enable-background:new 0 0 841.89 595.28;" xml:space="preserve">
<path d="M140.39,223.7H83.14v25.9h16.91V328c0,0,0,48.89,51.73,48.89c0,0,21.91,0.38,34.88-17.68c0,0,10.96,17.68,31.72,17.68
	c0,0,19.61,1.93,32.94-10.22c0,0,27.44-18.39,27.07-75.25c0,0-0.78-42.71-10.94-67.78h-47.11v25.9h14.13
	c4.91,15.59,7.41,31.84,7.42,48.19c0.08,11.51-2.46,22.9-7.42,33.29c0,0-5.08,12.17-16.09,12.17c0,0-9.83-0.37-9.44-12.17V223.7
	h-57.16v25.9h16.88v79.63c0,0,0,14.06-14.13,14.06c0,0-14.14,0-14.14-14.06V223.7"/>
<path d="M314.12,235.38c0,0,23.89,0,23.89,18.41c0,0,0,18.43-23.89,18.43c0,0-23.89,0-23.89-18.43
	C290.23,253.79,290.04,235.38,314.12,235.38"/>
<path d="M395.27,293.44c0.6-0.55,1.14-1.17,1.59-1.85c6.63-9.56,11.66-27.54,11.66-27.54c1.03-3.86,1.61-7.84,1.74-11.83
	c-0.09-2.99-0.67-5.95-1.74-8.74c-2.1-4.3-5.24-4.22-5.24-4.22c-3.93,0-6.91,5.29-6.91,5.29c-2.76,4.59-2.76,12.66-2.76,12.66v33.09
	c0,4.62,1.69,3.19,1.69,3.19 M447.45,328.39c-1.5,4.09-3.62,8.46-3.62,8.46c-0.44,0.75-0.73,1.57-0.86,2.42
	c0.14,0.89,0.44,1.74,0.88,2.53c1.1,1.78,2.58,3.29,4.33,4.43c2.09,1.39,4.54,2.15,7.06,2.17c3.19,0.02,6.18-1.56,7.96-4.2
	c1.58-2.25,2.49-4.91,2.61-7.66c-0.23-2.19-0.87-4.32-1.9-6.27c-1.51-3.19-4.55-8.82-4.55-8.82c-1.8-2.91-3.55-6.66-3.55-6.66
	c-0.84-2.13-1.59-1.86-1.59-1.86c-0.81,0-1.59,2.26-1.59,2.26c-2.8,7.85-5.22,13.22-5.22,13.22 M285.85,275.43h46.65v61.76
	c0,0,0,7.07,6.45,7.07c5.25-0.97,9.85-4.12,12.66-8.66c0,0,7.09-9.01,7.09-16.42v-74.71c0,0,0.96-26.99,37.27-26.99
	c0,0,36.01-1.19,36.01,33.89c0,0,1.97,16.45-11.31,39.96c0,0-5.92,10.94-12.57,20.91c0,0-4.92,7.68-9.56,14.33
	c-2.23,2.63-3.54,5.93-3.71,9.38c-0.27,4.62,3.26,8.58,7.88,8.85c0.37,0.02,0.74,0.02,1.1-0.01c5.63-0.46,10.88-3.04,14.68-7.21
	c6.56-6.69,11.58-14.73,14.73-23.55c5.18-12.23,8.05-25.32,8.44-38.6h34.29c0.17,2.31,0.56,4.6,1.16,6.83c0,0,1.18,5.32,7.96,14.68
	c0,0,9.56,13.76,12.53,18.87c4.53,7.31,7.03,15.7,7.23,24.3c0,0-0.13,13.51-9.56,22.9c0,0-10.54,13.19-26.09,13.19
	c-7.08-0.22-14.02-2.05-20.29-5.37c0,0-11.75-6.26-16.93-13.25c-0.43-0.59-1.15-0.91-1.88-0.84c-0.72,0.08-1.4,0.38-1.94,0.86
	c-4.26,4.44-9.08,8.31-14.33,11.51c-7.2,4.63-15.58,7.09-24.14,7.09c0,0-12.93,0-20.82-7.53c0,0-6.85-5.65-8.17-12.31
	c-0.23-0.62-0.8-1.05-1.47-1.1c-0.63,0.14-1.2,0.5-1.59,1.02c-4.1,4.64-8.71,8.79-13.74,12.39c0,0-8.19,7.53-22.74,7.53
	c0,0-13.12,0.18-19.96-6.88c0,0-7.68-6.7-7.68-16.93v-54.21c0,0,0.41-5.08-7.58-5.08L285.85,275.43z"/>
<path d="M558.84,349.82c0,0,6.37,0.27,8.78-4.68c0,0,2.79-5.32,3.33-20.23v-0.14c-0.54-14.91-3.33-20.16-3.33-20.16
	c-2.36-5.02-8.78-4.7-8.78-4.7h-0.27c0,0-6.47-0.32-8.84,4.7c0,0-2.69,5.26-3.3,20.16v0.14c0.61,14.91,3.3,20.23,3.3,20.23
	c2.37,4.95,8.84,4.68,8.84,4.68H558.84 M507.41,324.8c0,0,0.81-24.27,15.27-36.79c10.07-9.03,23.1-14.06,36.63-14.14
	c0,0,22.5,0.18,34.64,12.74c2.09,1.98,4,4.16,5.69,6.5c0,0,1.39,1.59,2.6,0.14c0,0,7.2-8.39,11.91-11.55c0,0,9.56-7.96,20.4-7.96
	c0,0,8.78-0.22,13.71,4.48c3.59,3.08,6.59,6.78,8.85,10.93c0.63,1.11,2.04,1.5,3.15,0.88c0.3-0.17,0.56-0.4,0.76-0.69
	c3.26-3.4,6.83-6.48,10.65-9.22c6.5-4.52,14.21-6.97,22.12-7.02c0,0,11.55,0.38,17.01,5.84c0,0,9.64,7.66,9.64,18.27v54.47
	c0,0,0,6.66,5.83,6.9h5.94v16.83h-31.55c0,0-18.95-0.19-18.95-20.99v-38.99c0,0,0-8.25-10.27-8.25c0,0-11.34,0.21-11.34,9.56v58.62
	h-38.76v-60.14c0,0-0.27-5.7-4.78-5.7c-2.51,0.44-4.79,1.7-6.5,3.58c-1.21,1.15-1.58,2.94-0.92,4.48c0.47,2.91,0.7,5.86,0.72,8.81
	c0,0,0.21,22.14-13.94,35.04c-9.77,9.43-22.8,14.71-36.38,14.75c0,0-22.6,0-35.47-13.03C513.34,353.29,507.29,339.36,507.41,324.8"
	/>
<path d="M747.16,366v-3.68h2.45c1.24,0,2.55,0.25,2.55,1.75c0,1.82-1.31,1.93-2.85,1.93H747.16 M747.16,367.5h2.02l3.19,5.1h1.99
	l-3.28-5.18c1.66,0.02,3.03-1.31,3.05-2.97c0-0.07,0-0.14,0-0.21c0-2.31-1.37-3.34-4.16-3.34h-4.46v11.77h1.74L747.16,367.5z
	 M749.34,376.91c5.63-0.14,10.08-4.82,9.93-10.44c-0.14-5.63-4.82-10.08-10.44-9.93c-5.52,0.14-9.93,4.65-9.94,10.17
	c0,5.64,4.57,10.21,10.21,10.21C749.18,376.92,749.26,376.91,749.34,376.91 M740.98,366.7c0.11-4.6,3.94-8.23,8.53-8.12
	c4.6,0.11,8.23,3.94,8.12,8.53c-0.11,4.5-3.79,8.1-8.29,8.12c-4.59,0.03-8.34-3.67-8.36-8.26
	C740.98,366.89,740.98,366.8,740.98,366.7"/>
</svg>
