<?xml version="1.0" standalone="no"?>
<!DOCTYPE svg PUBLIC "-//W3C//DTD SVG 20010904//EN"
 "http://www.w3.org/TR/2001/REC-SVG-20010904/DTD/svg10.dtd">
<svg version="1.0" xmlns="http://www.w3.org/2000/svg"
 width="3000.000000pt" height="2000.000000pt" viewBox="0 0 3000.000000 2000.000000"
 preserveAspectRatio="xMidYMid meet">

<g transform="translate(0.000000,2000.000000) scale(0.100000,-0.100000)"
fill="#000000" stroke="none">
<path d="M3460 12308 c0 -425 3 -1809 7 -3075 l6 -2303 11527 0 11527 0 6
2303 c4 1266 7 2650 7 3075 l0 772 -11540 0 -11540 0 0 -772z m12945 -428
c164 -28 295 -79 416 -160 79 -54 197 -184 248 -275 151 -264 215 -698 216
-1460 0 -772 -81 -1229 -268 -1505 -47 -68 -155 -177 -221 -222 -128 -88 -299
-147 -489 -169 -143 -16 -427 -6 -537 20 -319 75 -525 232 -663 507 -145 288
-202 677 -202 1364 1 736 67 1154 229 1438 194 342 535 504 1026 486 74 -3
185 -14 245 -24z m-7935 -69 c0 -5 -235 -416 -521 -912 -287 -497 -627 -1088
-757 -1314 -129 -225 -241 -417 -249 -425 -11 -12 -13 -4 -13 55 -1 268 -71
663 -169 945 -173 499 -484 960 -880 1304 -120 103 -277 220 -388 288 -46 29
-86 55 -89 60 -3 4 686 8 1530 8 898 0 1536 -4 1536 -9z m3076 -8 c-4 -10
-238 -418 -520 -908 -282 -489 -620 -1075 -750 -1301 -130 -225 -243 -419
-251 -430 -13 -17 -14 -13 -15 46 -1 195 -42 484 -101 718 -182 718 -648 1370
-1276 1783 -65 43 -127 85 -138 93 -18 13 144 15 1519 16 1461 0 1538 -1 1532
-17z m1822 -545 c132 -310 255 -598 272 -641 18 -42 34 -76 35 -75 1 2 130
284 285 628 156 344 288 631 293 638 13 16 717 18 717 1 0 -5 -189 -425 -421
-932 -231 -507 -449 -986 -485 -1064 l-64 -141 0 -751 0 -751 -335 0 -335 0 0
746 0 747 -69 161 c-38 88 -245 569 -460 1067 -215 499 -391 912 -391 918 0 8
101 11 359 11 l359 0 240 -562z m5393 -422 l474 -984 5 982 5 981 330 0 330 0
3 -1823 2 -1822 -302 2 -302 3 -466 966 -465 967 -3 -969 -2 -969 -340 0 -340
0 0 458 c0 252 3 1074 7 1825 l6 1367 292 0 291 0 475 -984z m3547 647 l2
-333 -630 0 -630 0 0 -410 0 -410 568 0 569 0 6 -247 c4 -137 7 -285 7 -330
l0 -83 -575 0 -575 0 0 -420 0 -420 630 0 630 0 0 -330 0 -330 -965 0 -965 0
0 1825 0 1825 963 -2 962 -3 3 -332z m936 315 c7 -13 121 -246 252 -518 131
-272 241 -499 244 -503 4 -4 119 228 257 515 l250 523 359 3 c197 1 364 0 371
-2 7 -3 -149 -337 -423 -906 -239 -496 -434 -905 -434 -909 0 -5 196 -415 435
-912 239 -496 435 -906 435 -911 0 -4 -166 -8 -368 -8 l-368 0 -254 530 c-140
291 -255 528 -257 526 -2 -1 -117 -239 -257 -527 l-254 -524 -372 -3 -371 -2
15 29 c49 93 866 1795 866 1802 0 5 -193 412 -430 904 -236 492 -430 899 -430
905 0 7 121 10 360 10 l360 0 14 -22z m-17465 -1599 c268 -39 549 -215 700
-438 177 -260 235 -584 158 -882 -63 -245 -228 -479 -436 -619 -263 -177 -613
-228 -916 -133 -414 129 -707 495 -744 927 -33 393 143 762 465 976 238 157
483 211 773 169z m3079 0 c88 -14 214 -55 297 -97 281 -141 478 -382 561 -687
25 -90 27 -117 27 -265 0 -147 -3 -176 -26 -265 -50 -188 -146 -355 -281 -491
-504 -507 -1357 -382 -1695 247 -224 416 -148 932 186 1261 246 244 585 352
931 297z m16708 -1300 c280 -51 406 -372 236 -603 -127 -173 -393 -196 -555
-47 -116 107 -152 290 -87 438 44 99 168 194 277 213 68 11 64 11 129 -1z"/>
<path d="M16002 11259 c-71 -9 -156 -45 -212 -89 -85 -67 -142 -206 -159 -385
-16 -172 -31 -560 -31 -785 1 -266 25 -753 43 -855 28 -153 74 -252 152 -324
60 -55 115 -79 215 -93 206 -30 387 47 468 199 66 126 84 229 102 593 20 410
22 559 11 770 -32 588 -34 602 -98 739 -62 131 -170 209 -318 231 -78 11 -84
11 -173 -1z"/>
<path d="M25404 8846 c-197 -64 -291 -293 -194 -475 39 -72 83 -114 160 -150
73 -34 190 -36 262 -4 103 47 188 161 203 273 9 66 -17 162 -60 226 -38 54
-67 79 -135 114 -55 29 -174 37 -236 16z m232 -149 c31 -36 34 -113 5 -148
-18 -22 -18 -25 -3 -42 10 -11 17 -42 20 -80 2 -34 8 -66 13 -71 19 -21 9 -36
-26 -36 -39 0 -41 4 -48 98 -2 29 -10 59 -16 65 -7 7 -48 14 -91 16 l-80 3 0
-91 0 -91 -30 0 -30 0 0 206 0 206 131 -4 c129 -3 131 -3 155 -31z"/>
<path d="M25410 8615 l0 -65 79 0 c91 0 111 12 111 65 0 50 -28 65 -117 65
l-73 0 0 -65z"/>
</g>
</svg>
