<?xml version="1.0" standalone="no"?>
<!DOCTYPE svg PUBLIC "-//W3C//DTD SVG 20010904//EN"
 "http://www.w3.org/TR/2001/REC-SVG-20010904/DTD/svg10.dtd">
<svg version="1.0" xmlns="http://www.w3.org/2000/svg"
 width="300.000000pt" height="233.000000pt" viewBox="0 0 300.000000 233.000000"
 preserveAspectRatio="xMidYMid meet">

<g transform="translate(0.000000,233.000000) scale(0.100000,-0.100000)"
fill="#000000" stroke="none">
<path d="M1714 2296 c-355 -94 -674 -358 -847 -702 -187 -371 -162 -759 63
-984 82 -82 194 -142 310 -166 111 -24 297 -14 415 20 443 130 818 530 921
981 25 107 25 304 1 395 -57 215 -191 368 -391 443 -75 28 -92 31 -231 34
-133 3 -160 0 -241 -21z m425 -132 c31 -8 93 -32 137 -54 170 -83 276 -247
291 -447 34 -473 -431 -996 -986 -1108 -117 -24 -318 -16 -411 15 -204 69
-334 214 -376 420 -61 305 130 693 466 946 159 120 393 219 575 243 85 12 227
4 304 -15z"/>
<path d="M1277 1510 c-191 -291 -350 -535 -352 -542 -4 -10 31 -12 170 -8
l174 5 279 480 c153 264 293 506 311 538 l32 57 -133 0 -133 0 -348 -530z"/>
<path d="M1559 1329 c-112 -194 -205 -357 -207 -363 -2 -8 118 -11 428 -11
252 0 421 4 408 9 -13 4 -64 28 -115 52 -189 91 -306 261 -320 469 -3 44 -1
105 5 135 6 30 9 56 8 58 -2 1 -95 -156 -207 -349z"/>
<path d="M66 138 c-27 -57 -50 -109 -53 -116 -3 -8 4 -12 21 -12 21 0 30 9 48
44 l21 44 88 4 c93 3 121 17 140 65 20 52 -19 73 -135 73 l-83 0 -47 -102z
m195 62 c51 -28 0 -70 -83 -70 -32 0 -58 3 -58 8 0 4 9 22 20 40 17 28 25 32
61 32 22 0 49 -5 60 -10z"/>
<path d="M335 134 c-27 -59 -51 -111 -53 -115 -2 -5 9 -9 25 -9 24 0 31 7 46
45 l19 45 65 0 66 0 -6 -45 c-7 -44 -6 -45 22 -45 26 0 29 4 35 42 4 25 3 45
-4 52 -7 7 -1 15 22 26 42 20 59 63 35 88 -14 13 -39 18 -120 20 l-102 3 -50
-107z m213 67 c20 -12 10 -44 -18 -58 -30 -15 -130 -17 -130 -3 0 6 7 24 15
40 14 27 20 30 68 30 28 0 58 -4 65 -9z"/>
<path d="M705 221 c-78 -35 -123 -117 -91 -166 24 -37 55 -49 123 -48 103 1
179 57 190 140 5 35 2 42 -27 66 -27 23 -41 27 -93 27 -38 0 -77 -7 -102 -19z
m146 -21 c37 -20 15 -115 -32 -141 -70 -37 -144 -29 -155 18 -9 35 19 89 58
113 36 22 98 26 129 10z"/>
<path d="M1000 180 c-16 -33 -41 -84 -54 -115 l-25 -55 49 0 c47 0 50 2 64 34
8 19 24 39 35 46 19 10 23 6 43 -35 22 -45 22 -45 75 -45 29 0 53 3 53 8 0 4
-14 31 -30 61 -17 30 -30 58 -30 62 0 4 37 27 81 51 l81 43 -61 3 c-55 3 -66
0 -117 -33 -59 -38 -73 -40 -55 -7 19 35 13 42 -34 42 -45 0 -45 0 -75 -60z"/>
<path d="M1305 130 c-30 -60 -55 -112 -55 -115 0 -3 61 -5 135 -5 123 0 135 2
145 19 19 37 12 41 -71 41 -60 0 -80 3 -77 13 3 8 32 13 85 15 74 3 81 5 91
27 l12 25 -76 0 c-56 0 -75 3 -72 13 3 8 33 13 92 15 82 3 87 4 96 28 6 14 10
27 10 30 0 2 -58 4 -130 4 l-130 0 -55 -110z"/>
<path d="M1634 185 c-13 -31 -38 -82 -54 -115 l-30 -60 48 0 48 0 29 60 c15
32 31 57 35 55 4 -2 12 -29 19 -60 l12 -55 52 0 52 0 50 107 c28 58 52 110 53
114 2 5 -17 9 -43 9 l-46 0 -27 -60 c-15 -32 -30 -59 -33 -60 -4 0 -14 27 -23
60 l-17 60 -50 0 -50 0 -25 -55z"/>
<path d="M1948 153 c-22 -49 -46 -100 -54 -116 l-15 -27 49 0 49 0 28 61 c30
68 36 66 56 -13 l11 -48 49 0 49 0 55 110 c30 60 55 112 55 115 0 3 -20 5 -46
5 l-45 0 -27 -60 c-15 -32 -30 -59 -33 -60 -4 0 -14 27 -23 60 l-17 60 -50 0
-50 0 -41 -87z"/>
<path d="M2267 128 l-53 -113 195 -3 195 -2 42 30 c23 16 45 30 47 30 3 0 8
-14 12 -30 6 -29 8 -30 66 -30 l59 0 -30 60 -30 60 76 52 76 53 -56 3 c-51 3
-60 0 -94 -28 l-37 -31 -13 31 c-11 28 -16 30 -62 30 -28 0 -50 -2 -50 -5 0
-3 11 -28 25 -55 l25 -49 -80 -55 c-44 -31 -82 -56 -85 -56 -3 0 -1 9 5 19 5
11 10 22 10 25 0 3 -38 6 -85 6 -71 0 -83 2 -79 15 5 12 24 15 85 15 67 0 80
3 89 19 5 11 10 22 10 25 0 3 -34 6 -76 6 -56 0 -75 3 -72 13 3 8 33 13 91 15
85 3 87 3 102 32 l16 30 -135 0 -135 0 -54 -112z"/>
</g>
</svg>
